# xmcd
#
# Track frame offsets:
#	150
#	13751
#	26782
#	46249
#	63908
#	77701
#	91373
#	112490
#	129247
#	145054
#	160354
#	174443
#	186992
#	200456
#	212357
#	226742
#	243378
#	257500
#	272087
#	282073
#	293295
#	308156
#
# Disc length: 4340 seconds
#
# Revision: 0
# Processed by: cddbd v1.5.2PL0 Copyright (c) Steve Scherf et al.
# Submitted via: dBpowerAMP V4.0
#
DISCID=2f10f216
DTITLE=Dr Hook - Our Norwegian Collection
DYEAR=2000
DGENRE=Ballad
TTITLE0=Sylvia's Mother
TTITLE1=Cover of the Rolling Stone
TTITLE2=Carry Me, Carrie
TTITLE3=Ballad of Lucy Jordan
TTITLE4=Life Ain't Easy
TTITLE5=Roland the Roadie and Gertrude the Groupie
TTITLE6=Queen of the Silver Dollar
TTITLE7=The Wonderful Soup Stone
TTITLE8=You Ain't Got The Right
TTITLE9=I Got Stoned and I Missed It
TTITLE10=Everybody's Makin' It Big but Me
TTITLE11=Only Sixteen
TTITLE12=The Millionaire
TTITLE13=Sweetest of All
TTITLE14=If Not You
TTITLE15=More Like the Movies
TTITLE16=Couple More Years
TTITLE17=A Little Bit More
TTITLE18=You Make My Pants Want to Get up and Dance
TTITLE19=The Radio
TTITLE20=Jungle to the Zoo
TTITLE21=Walk Right In
EXTD=
EXTT0=
EXTT1=
EXTT2=
EXTT3=
EXTT4=
EXTT5=
EXTT6=
EXTT7=
EXTT8=
EXTT9=
EXTT10=
EXTT11=
EXTT12=
EXTT13=
EXTT14=
EXTT15=
EXTT16=
EXTT17=
EXTT18=
EXTT19=
EXTT20=
EXTT21=
PLAYORDER=
